<?xml version="1.0" encoding="utf-8"?>
<!-- Generator: Adobe Illustrator 19.2.1, SVG Export Plug-In . SVG Version: 6.00 Build 0)  -->
<svg version="1.1" id="Слой_1" xmlns="http://www.w3.org/2000/svg" xmlns:xlink="http://www.w3.org/1999/xlink" x="0px" y="0px"
	 viewBox="0 0 201.3 52.2" style="enable-background:new 0 0 201.3 52.2;" xml:space="preserve">
<style type="text/css">
	.st0{fill:#1D1D1B;}
</style>
<g>
	<path class="st0" d="M18.2,35.7c4.1,0,7.9-1.5,9.5-5.6c0.7-1.8,0.8-4.2,0.8-6.2V7.1h-3.8v16.3c0,3.9-0.4,8.8-6.9,8.8
		c-6.7,0-6.8-4.8-6.8-8.6V7.1H7.1V23c0,2.9,0,6.3,1.6,8.7C10.8,34.8,14.6,35.7,18.2,35.7z"/>
	<path class="st0" d="M37.8,24.2c0-3.6,1.6-6.8,5.6-6.8c2.4,0,4,1.4,4,4.6v13.3h3.7V22c0-4.8-2-7.7-7.2-7.7c-2.4,0-4.8,1-6.2,3v-2.7
		h-3.6v20.7h3.7V24.2z"/>
	<path class="st0" d="M64,35.7c2.4,0,5-0.8,6.4-2.9v2.5h3.6V7.1h-3.6v10.2c-1.4-2.1-4-3.1-6.5-3.1c-6.1,0-8.7,5.1-8.7,10.6
		C55.2,30.4,57.6,35.7,64,35.7z M64.4,17.3c4.4,0,5.9,3.8,5.9,7.6c0,4-1.5,7.8-5.8,7.8c-4.2,0-5.6-3.6-5.6-7.2
		C58.9,21.6,59.8,17.3,64.4,17.3z"/>
	<path class="st0" d="M87.6,35.7c4.8,0,8.5-2.2,9.2-6.8L93,28.6c-0.5,2.7-2.4,4.1-5.2,4.1c-3.8,0-5.9-3.1-5.9-6.5v-0.3h15
		c0-0.4,0-0.8,0-1.1c0-5.9-2.8-10.6-9.2-10.6c-6.3,0-9.7,4.9-9.7,10.8C78.1,30.2,80.5,35.7,87.6,35.7z M87.9,17.4
		c3.3,0,5.1,2.5,5.2,5.6H81.9C82.4,19.6,84.3,17.4,87.9,17.4z"/>
	<path class="st0" d="M104.7,26c0-2.6,0.2-5.1,2.4-6.8c1-0.8,2.3-1.2,3.6-1.2c0.4,0,0.8,0,1.2,0.1v-3.5c-0.5-0.1-1.1-0.2-1.6-0.2
		c-2.6,0-4.6,1.3-5.7,3.7v-3.5h-3.4v20.7h3.6V26z"/>
	<rect x="115" y="7.1" class="st0" width="3.6" height="28.2"/>
	<rect x="123.6" y="14.6" class="st0" width="3.6" height="20.7"/>
	<rect x="123.6" y="7.1" class="st0" width="3.6" height="4.1"/>
	<path class="st0" d="M136,24.2c0-3.6,1.6-6.8,5.6-6.8c2.4,0,4,1.4,4,4.6v13.3h3.7V22c0-4.8-2-7.7-7.2-7.7c-2.4,0-4.8,1-6.2,3v-2.7
		h-3.6v20.7h3.7V24.2z"/>
	<path class="st0" d="M162.8,35.7c4.8,0,8.5-2.2,9.2-6.8l-3.8-0.3c-0.5,2.7-2.4,4.1-5.2,4.1c-3.8,0-5.9-3.1-5.9-6.5v-0.3h15
		c0-0.4,0-0.8,0-1.1c0-5.9-2.8-10.6-9.2-10.6c-6.3,0-9.7,4.9-9.7,10.8C153.3,30.2,155.7,35.7,162.8,35.7z M163.1,17.4
		c3.3,0,5.1,2.5,5.2,5.6h-11.2C157.7,19.6,159.5,17.4,163.1,17.4z"/>
	<path class="st0" d="M190.6,7.1v10.2c-1.4-2.1-4-3.1-6.5-3.1c-6.1,0-8.7,5.1-8.7,10.6c0,5.6,2.4,11,8.8,11c2.4,0,5-0.8,6.4-2.9v2.5
		h3.6V7.1H190.6z M184.7,32.8c-4.2,0-5.6-3.6-5.6-7.2c0-4,0.9-8.3,5.5-8.3c4.4,0,5.9,3.8,5.9,7.6C190.6,28.9,189.1,32.8,184.7,32.8z
		"/>
	<rect x="7.1" y="42.2" class="st0" width="187.1" height="3"/>
</g>
</svg>
